<svg
   xmlns:dc="http://purl.org/dc/elements/1.1/"
   xmlns:cc="http://creativecommons.org/ns#"
   xmlns:rdf="http://www.w3.org/1999/02/22-rdf-syntax-ns#"
   xmlns:svg="http://www.w3.org/2000/svg"
   xmlns="http://www.w3.org/2000/svg"
   version="1.1"
   id="svg5734"
   viewBox="0 0 82.177599 49.665397"
   height="14.016679mm"
   width="23.192345mm">
  <defs
     id="defs5736" />
  <g
     transform="translate(-213.19691,-170.38665)"
     id="layer1">
    <path
       id="path3157-7-7"
       d="m 254.02201,170.38894 c -6.6354,0.006 -13.161,2.92516 -17.7291,7.69347 -4.2065,-0.0114 -8.4165,-0.0159 -12.626,-0.0154 -3.4693,6.051 -6.9731,12.0818 -10.47,18.11691 l 16.2711,0 c 0.1724,5.2876 2.1835,10.46209 5.4289,14.59592 0.064,0.78593 0.7091,1.4166 1.4425,1.61315 6.6244,7.11349 17.7137,9.62464 26.7721,6.03377 3.9381,-1.51313 7.5028,-4.02438 10.2063,-7.25917 l 22.0567,0 c -3.4941,-6.05308 -6.9665,-12.06109 -10.4545,-18.10142 -1.9586,-0.0629 -3.9202,0.0332 -5.8786,-0.0308 -0.7757,-9.92727 -8.1258,-18.97495 -17.7447,-21.63794 -2.3528,-0.68759 -4.8202,-1.04507 -7.2747,-1.00819 z m -3.49,1.86132 7.5074,0 c 1.7362,0.28133 3.4097,0.75262 4.9945,1.39595 l -17.4809,0 c 1.5849,-0.64333 3.2428,-1.11462 4.979,-1.39595 z m -8.0967,2.94705 23.7008,0 c 0.8247,0.48921 1.6183,1.01356 2.3733,1.59766 l -28.4474,0 c 0.7554,-0.58441 1.5482,-1.10825 2.3733,-1.59766 z m -3.9398,2.93161 31.5804,0 c 0.7411,0.68542 1.4316,1.41123 2.0785,2.18708 l -7.104,0 c -0.2317,0.45208 -0.6266,1.15403 -0.9772,1.73724 l 0.5429,0 c 0.3323,-0.59036 0.6992,-0.83858 1.2254,-0.83765 0.636,0 1.1563,0.32303 1.427,0.83765 l 6.2044,0 c 0.4213,0.6128 0.8011,1.23905 1.1633,1.8923 l -5.9717,0 c 0.2388,0.37331 0.6204,1.14672 0.6204,1.30293 0,0.0817 0.032,0.21646 0.078,0.32576 l 6.0958,0 c 0.3676,0.80648 0.6867,1.64447 0.9617,2.4973 l -6.7318,0 c -0.1171,0.52405 -0.4124,1.12002 -0.8531,1.62864 l 8.0503,0 c 0.2826,1.16047 0.4725,2.34621 0.5739,3.56753 l -9.0895,0 c -0.1241,0.0904 -0.2679,0.21835 -0.3257,0.29469 -0.09,0.11848 -0.2911,0.14181 -0.9152,0.12409 -0.4388,-0.0124 -0.8337,-0.0461 -0.8841,-0.0775 -0.05,-0.0313 -0.093,-0.18892 -0.093,-0.34125 l -6.6232,0 c -0.1035,0.0797 -0.1715,0.13546 -0.2792,0.21716 -0.7263,0.55115 -0.7915,0.70001 -0.5584,1.08577 0.075,0.12275 0.2287,0.40721 0.3723,0.66695 l 2.7764,0 -0.3567,-0.62044 10.1752,0 0.3568,0.62044 2.156,0 -0.3567,-0.62044 10.1907,0 1.7373,3.00919 -6.918,0 1.7373,2.99361 6.9024,0 5.1962,8.98093 -10.1908,0 -1.7217,-2.99366 6.9024,0 -1.7372,-2.99366 -6.9024,0 -2.5748,-4.46719 -2.1561,0 1.0392,1.79929 1.5202,0 c -0.1501,0.59314 -0.3313,1.16424 -0.5275,1.73724 l 4.0019,6.91798 -7.74,0 c -0.6048,0.7685 -1.2604,1.50261 -1.9544,2.18703 l -32.6663,0 c -0.3214,-0.31697 -0.6278,-0.64144 -0.9307,-0.97722 -0.3324,-0.0164 -0.5584,-0.0502 -0.5584,-0.0775 0,-0.0243 0.097,-0.24019 0.1551,-0.38775 -0.9539,-1.11491 -1.812,-2.31891 -2.5438,-3.59856 l 4.1415,0 c 0.2614,-0.56108 0.5189,-1.09322 0.729,-1.52013 0.022,-0.0447 0.026,-0.0662 0.047,-0.10856 l -5.7547,0 c -0.6256,-1.32829 -1.1371,-2.72096 -1.5045,-4.17249 l 6.9024,0 c 0.1001,-0.22321 0.1861,-0.4235 0.1861,-0.51185 0,-0.10349 0.072,-0.21616 0.1551,-0.24817 0.084,-0.0318 0.246,-0.28829 0.3724,-0.57388 0.08,-0.17959 0.1796,-0.33722 0.2636,-0.46539 l -8.2518,0 c -0.2158,-1.26927 -0.3401,-2.57806 -0.3413,-3.90878 l 9.7254,0 c -0.033,-0.0666 -0.064,-0.13292 -0.1085,-0.18613 -0.1348,-0.16003 -0.2482,-0.40404 -0.2482,-0.54286 0,-0.22748 -0.2411,-0.83015 -0.4654,-1.24089 l -5.8011,0 -0.7755,1.34944 -5.0876,0 4.0638,-7.04197 c 0.2355,-0.68184 0.495,-1.35132 0.7911,-2.00095 l 0.3722,0 0.9307,-1.62869 -0.4809,0 c 0.3624,-0.65335 0.7575,-1.27945 1.1789,-1.8923 l 0.4033,0 1.0082,-1.73723 -0.1086,0 c 0.089,-0.10687 0.1875,-0.20609 0.2793,-0.31022 l 0.2171,-0.37227 0.1086,0 c 0.4711,-0.52211 0.9553,-1.02532 1.4735,-1.5046 z m 2.2491,17.10867 c 0.088,0.17834 0.1408,0.3874 0.1396,0.58947 0,-0.20256 -0.053,-0.41366 -0.1396,-0.58947 z m 0.1396,0.58947 c 0,0.0846 -0.013,0.17124 -0.031,0.24818 0.017,-0.0786 0.031,-0.16187 0.031,-0.24818 z m -16.3177,-16.19354 10.1908,0 -8.6552,14.98363 -10.1907,0 z m 0.2327,0.38775 c -0.4894,0.84703 -0.9842,1.69678 -1.4736,2.54382 0.2771,-0.0512 0.9668,-0.54153 1.1324,-0.82207 0.1098,-0.18613 0.3578,-0.42363 0.5429,-0.51188 0.3215,-0.15333 0.3408,-0.13705 0.6204,0.062 0.1609,0.11461 0.3228,0.31454 0.3567,0.44985 0.034,0.13525 0.1348,0.24818 0.2172,0.24818 0.2002,0 0.729,-0.28263 0.729,-0.38781 0,-0.0457 0.2396,-0.2588 0.5274,-0.48081 0.6062,-0.46772 0.9504,-0.51929 1.1788,-0.17065 0.1389,0.21194 0.1978,0.22063 0.5585,0.13958 0.3996,-0.0897 0.9389,-0.0462 1.3029,0.10859 0.1077,0.0457 0.3171,0.10747 0.4653,0.13958 0.1744,0.0377 0.3616,0.20271 0.5274,0.46538 0.2569,0.40696 0.2879,0.78608 0.093,1.42702 -0.048,0.15655 -0.014,0.24355 0.1396,0.3257 0.1312,0.0701 0.2037,0.0737 0.3258,0 l 2.0474,-3.53652 z m 12.3468,0 c -0.1887,0.32655 -0.3852,0.66616 -0.5739,0.99271 0.077,0.11441 0.2724,0.13803 0.5428,0.13957 0.3319,0 0.5034,0.22723 0.4654,0.58947 -0.017,0.15839 0.029,0.409 0.1086,0.5584 0.1122,0.2106 0.1104,0.27831 0.016,0.31022 -0.2271,0.0763 -0.1232,0.32754 0.2947,0.71346 0.3258,0.11049 0.9302,0.43516 1.2099,0.3878 l 2.125,-3.69163 z m 4.4671,0.29473 -1.0082,1.73724 11.3697,0 c 0.4665,-0.83253 0.7875,-1.40537 1.0082,-1.73724 z m 12.1608,0 c 0.1371,0.25886 0.3035,0.6204 0.5583,1.20982 0.06,0.13833 0.1603,0.36254 0.2327,0.52742 l 3.8157,0 c 0.1252,-0.22976 0.2598,-0.46929 0.3723,-0.68249 0.2139,-0.40571 0.4183,-0.77257 0.5894,-1.05475 z m -0.4809,0.43431 c -0.06,0.0198 -0.3782,0.52718 -0.698,1.1168 -0.3198,0.58957 -0.6696,1.24252 -0.7911,1.45799 -0.8927,1.58371 -1.1522,2.13278 -1.0392,2.20262 0.1168,0.0721 1.4959,-0.4083 1.7372,-0.60495 0.073,-0.0596 0.1,-0.19199 0.062,-0.34125 -0.059,-0.23245 -0.049,-0.2517 0.2172,-0.18613 0.3145,0.0776 0.9307,0.60719 0.9307,0.80657 0,0.17145 -0.094,0.16454 -0.3103,-0.0312 -0.1473,-0.13333 -0.2299,-0.13968 -0.4343,-0.0466 -0.137,0.0624 -0.3246,0.1086 -0.4188,0.1086 -0.3479,0 -1.8278,0.67544 -1.9699,0.89964 -0.079,0.12375 -0.3622,0.50673 -0.6205,0.8376 -0.2582,0.33087 -0.4653,0.63106 -0.4653,0.667 0,0.0357 -0.1246,0.21993 -0.2791,0.41877 -0.1546,0.19884 -0.6393,1.04185 -1.0858,1.87686 -0.4466,0.83497 -1.659,3.04295 -2.6835,4.90149 -1.0244,1.8585 -2.0273,3.72207 -2.2336,4.14143 -0.2721,0.55363 -0.4737,0.82023 -0.7135,0.96169 -0.2618,0.15446 -0.3622,0.31766 -0.5273,0.80657 -0.1146,0.33921 -0.2172,0.7015 -0.2172,0.79109 0,0.097 -0.189,0.25538 -0.4808,0.40324 -0.3896,0.19745 -0.4964,0.30292 -0.4964,0.49635 0,0.20584 0.058,0.23269 0.3103,0.23269 0.411,0 0.8921,0.26252 0.8531,0.46533 -0.024,0.12533 -0.1674,0.17815 -0.6205,0.20167 -0.7581,0.0393 -0.8376,0.061 -0.8376,0.3412 0,0.12845 -0.3084,0.86857 -0.6825,1.64422 -0.5324,1.10408 -0.6417,1.4434 -0.5429,1.52003 0.075,0.0583 0.665,0.0814 1.4736,0.062 1.2067,-0.0288 1.3876,-0.0502 1.5046,-0.21711 0.084,-0.11972 0.2472,-0.18613 0.4498,-0.18613 0.2355,0 0.4028,-0.10022 0.6515,-0.35678 0.1846,-0.19054 0.5595,-0.45788 0.8376,-0.58941 0.5772,-0.2731 1.0082,-0.73118 1.0082,-1.0703 0,-0.12731 0.054,-0.26138 0.1085,-0.29468 0.054,-0.0332 0.093,-0.42046 0.093,-0.86862 0,-0.98904 0.163,-1.42458 0.729,-1.96988 0.4868,-0.469 0.8045,-1.09396 0.8687,-1.70627 0.025,-0.24237 0.091,-0.64168 0.1551,-0.8841 0.068,-0.25914 0.1,-0.6538 0.062,-0.96168 -0.057,-0.46315 -0.047,-0.56158 0.1551,-0.77556 0.1257,-0.13307 0.2849,-0.42631 0.3413,-0.65146 0.07,-0.28079 0.1634,-0.42493 0.2947,-0.44984 0.2426,-0.0462 0.3482,-0.19696 0.2792,-0.41878 -0.033,-0.10408 0.05,-0.30084 0.2016,-0.48081 0.1609,-0.1912 0.2482,-0.41124 0.2482,-0.62044 0,-0.20679 0.078,-0.43695 0.2326,-0.62045 0.1347,-0.16008 0.2482,-0.39594 0.2482,-0.51189 0,-0.13193 0.1108,-0.26783 0.2947,-0.37227 0.1618,-0.0918 0.3272,-0.23422 0.3568,-0.32575 0.029,-0.0915 0.1235,-0.18742 0.2172,-0.2171 0.094,-0.0298 0.3167,-0.30869 0.4963,-0.60496 0.1796,-0.29627 0.3619,-0.54291 0.4033,-0.54291 0.076,0 0.108,-0.11933 0.2792,-1.27186 0.095,-0.6403 0.3269,-1.26411 0.5894,-1.58218 0.3554,-0.43054 1.2785,-0.009 1.4115,0.65152 0.1829,0.90818 0.4378,1.21482 0.8996,1.03921 0.2214,-0.0842 0.2609,-0.071 0.3569,0.13963 0.2917,0.64024 0.8691,0.28972 0.8375,-0.5119 -0.012,-0.29194 0.063,-0.60411 0.1861,-0.85308 0.1715,-0.34685 0.2282,-0.40621 0.5739,-0.4343 0.3587,-0.0293 0.539,-0.14152 0.5429,-0.3413 0,-0.0427 -0.1833,-0.27299 -0.4188,-0.51184 -0.4113,-0.41718 -0.4367,-0.449 -0.4498,-1.05475 -0.012,-0.59573 -0.2196,-1.20336 -0.7135,-2.06294 -0.3421,-0.59558 -0.5739,-1.05719 -0.5739,-1.16336 0,-0.13903 -0.5592,-1.50301 -0.8686,-2.1095 -0.1158,-0.22698 -0.2658,-0.40775 -0.3258,-0.38775 z m 14.2702,2.4042 c 0.039,0.0953 0.086,0.17813 0.1396,0.24817 -0.056,-0.0717 -0.1,-0.14876 -0.1396,-0.24817 z m 0.6514,0.51188 c 0.1457,0 0.3027,0.0568 0.3568,0.12409 -0.054,-0.0674 -0.2111,-0.12409 -0.3568,-0.12409 z m -42.7639,0.13958 -3.8468,6.65421 3.6296,0 3.8312,-6.65421 z m 14.053,0.13957 -0.9307,1.62869 2.761,0 c 0.034,-0.0638 0.064,-0.1295 0.1086,-0.20167 0.1721,-0.27528 0.3222,-0.58069 0.3257,-0.68249 0,-0.10175 0.1294,-0.41311 0.2792,-0.68249 0.014,-0.0258 0.018,-0.0387 0.031,-0.062 z m 4.7463,0 c 0.03,0.0504 0.062,0.0963 0.093,0.15516 0.3681,0.69117 0.5396,0.81457 0.9151,0.68249 0.2322,-0.0816 0.2844,-0.16037 0.3413,-0.5584 0.013,-0.0892 0.038,-0.18717 0.062,-0.27925 z m 4.8706,0 c 0.3015,0.41391 0.3528,0.70979 0.124,0.89969 -0.085,0.0703 -0.2398,0.29752 -0.3413,0.49635 -0.047,0.0919 -0.1091,0.16365 -0.1705,0.23265 l 1.1012,0 c 0.066,-0.0609 0.1243,-0.11823 0.1551,-0.1706 0.1023,-0.17382 0.2336,-0.38457 0.3102,-0.46538 0.048,-0.05 0.3041,-0.46677 0.605,-0.99271 z m 6.2819,0 c 0.2491,0.54991 0.5088,1.1101 0.6515,1.41154 0.048,0.1008 0.1005,0.17098 0.1395,0.21715 l 0.093,0 c 0.124,-0.1359 0.5327,-0.78538 1.0238,-1.62869 z m 8.3915,0 c 0.3515,0.33892 0.8313,0.54668 1.0703,0.41883 0.2359,-0.12628 0.243,-0.18792 0.047,-0.41883 z m -1.0237,0.91518 c -0.06,0 -0.1,4.2e-4 -0.1241,0.0154 -0.048,0.0293 -0.1219,0.3465 -0.1552,0.69801 l 0.9618,0 c -0.09,-0.1081 -0.1486,-0.21516 -0.1707,-0.32575 -0.043,-0.21269 -0.1389,-0.31374 -0.3102,-0.35673 -0.067,-0.0169 -0.1415,-0.0298 -0.2016,-0.0313 z m -13.3861,1.03926 c -0.1796,0.11099 -0.3841,0.22217 -0.5738,0.31022 0.1953,-0.0902 0.3895,-0.19601 0.5738,-0.31022 z m -0.5738,0.31022 c -0.168,0.0779 -0.3139,0.14638 -0.45,0.18614 0.1322,-0.0397 0.2889,-0.11189 0.45,-0.18614 z m 16.8139,-0.10859 c 0.056,0.0972 0.088,0.23015 0.1085,0.38774 -0.02,-0.16444 -0.049,-0.28828 -0.1085,-0.38774 z m -24.4919,0.0931 c -0.016,0.10101 -0.039,0.2105 -0.047,0.34125 0.01,-0.13363 0.031,-0.23831 0.047,-0.34125 z m 6.8558,0.21716 c 0.023,0.0188 0.06,0.0313 0.1086,0.0313 -0.052,0 -0.084,-0.011 -0.1086,-0.0313 z m -7.0885,0.8841 c -0.049,0.0498 -0.1171,0.10756 -0.2017,0.17065 0.09,-0.0671 0.1504,-0.11764 0.2017,-0.17065 z m 7.4763,0.72905 c -0.093,0.005 -0.2295,0.0169 -0.3723,0.0466 0.1428,-0.0298 0.2792,-0.0442 0.3723,-0.0466 z m -0.3723,0.0466 c -0.048,0.01 -0.09,0.0183 -0.1395,0.0308 -0.3146,0.0797 -0.7193,0.11972 -0.8997,0.0931 -0.2291,-0.0337 -0.4453,0.0288 -0.729,0.18613 -0.4775,0.265 -0.5591,0.33424 -0.4964,0.57389 0.026,0.0981 -0.053,0.39197 -0.1861,0.65146 -0.01,0.0178 -0.036,0.0722 -0.046,0.0931 l 2.1715,0 c 0.2267,-0.3866 0.4763,-0.82394 0.605,-1.03926 0.1614,-0.27007 0.2486,-0.50851 0.2327,-0.58937 z m -10.8732,0 -0.9462,1.62863 3.3194,0 c 0.021,-0.0159 0.041,-0.0372 0.062,-0.0466 0.2376,-0.10815 0.2434,-0.12365 0.2792,-1.03921 0.01,-0.10876 0.1,-0.31549 0.2172,-0.46534 0.028,-0.0352 0.036,-0.0432 0.062,-0.0775 z m 31.3943,2.07843 c -0.027,0.11684 -0.014,0.24669 0.047,0.41882 -0.06,-0.17089 -0.074,-0.30357 -0.047,-0.41882 z m 0.1397,2.71445 c -0.039,0.0804 -0.064,0.15497 -0.1086,0.21716 0.044,-0.0615 0.071,-0.13695 0.1086,-0.21716 z m -24.6316,0.40329 c 0.028,0.1906 0.052,0.33842 0.078,0.52738 0.053,0.3883 0.1676,0.76245 0.2637,0.86862 0.164,0.18117 0.1687,0.1772 0.3257,-0.0313 0.062,-0.0824 0.4769,-0.77094 0.8376,-1.36497 z m 18.1169,1.75278 c 0.1475,0.25532 0.3023,0.50469 0.4499,0.76001 0.1706,0.23443 0.3148,0.4979 0.4032,0.71351 0,0 0.014,0 0.016,0 0.086,0.1496 0.1618,0.30024 0.2481,0.44985 0.015,-0.005 0.029,0.005 0.047,0 0.3639,-0.0913 1.2076,0.21899 1.334,0.49635 0.1239,0.27211 0.5378,0.32769 0.8375,0.10855 0.1365,-0.0998 0.1698,-0.20608 0.1241,-0.43431 -0.043,-0.21333 -0.014,-0.35986 0.1086,-0.51189 0.19,-0.23462 0.1827,-0.24073 1.7682,-0.13957 0.9516,0.0607 1.0096,0.0476 1.2254,-0.15511 0.2178,-0.20449 0.2565,-0.19462 0.5429,-0.0466 0.1973,0.102 0.3176,0.25765 0.3723,0.46528 0.073,0.27647 0.1227,0.31955 0.3723,0.29473 0.1574,-0.0159 0.5061,-0.0313 0.7755,-0.0313 0.6256,5e-5 0.9366,-0.1305 1.1478,-0.46533 0.064,-0.10161 0.1348,-0.2115 0.2016,-0.31022 -0.2304,-0.39902 -0.4519,-0.79536 -0.6824,-1.19433 z m 12.3468,0 0.4188,0.72899 c 0.2636,0.17645 0.6337,0.25498 1.0238,0.20167 0.2731,-0.0373 0.5551,-0.062 0.6359,-0.062 0.081,0 0.3708,-0.072 0.6514,-0.15516 0.295,-0.0874 0.6331,-0.13129 0.7911,-0.093 0.1503,0.0362 0.5652,0.13134 0.9307,0.20163 0.3654,0.0703 0.7255,0.19734 0.7911,0.2792 0.1762,0.22033 0.4759,0.36789 0.698,0.34124 0.136,-0.0164 0.2497,-0.14519 0.3412,-0.43431 0.1423,-0.44975 0.2665,-0.50574 0.6359,-0.26367 0.2104,0.13779 0.2675,0.13446 0.5274,0 0.2335,-0.12076 0.3465,-0.13828 0.5895,-0.0466 0.224,0.0846 0.3591,0.0976 0.5273,0.0154 0.1242,-0.0606 0.3536,-0.15391 0.5118,-0.20161 0.3614,-0.10895 0.409,-0.25806 0.1707,-0.49635 -0.01,-0.009 -0.021,-0.008 -0.031,-0.0154 z m -15.2784,0.49635 c 0.572,1.05987 1.3872,2.53543 1.9079,3.45894 -0.4966,-0.87964 -1.3247,-2.37838 -1.9079,-3.45894 z m -7.6159,3.62953 -0.4343,0.88416 c -0.1612,0.32531 -0.2885,0.59001 -0.4498,0.91513 l 4.0639,0 c -0.028,-0.0457 -0.052,-0.0622 -0.078,-0.10855 -0.091,-0.16758 -0.3821,-0.65008 -0.6514,-1.05475 l -0.4343,-0.63599 z m 9.6169,0 c 0.1362,0.24024 0.4026,0.70904 0.4187,0.72905 0.026,0.0323 0.3676,0.63211 0.6205,1.07024 l 2.8695,0 -1.0392,-1.79929 z m 6.1423,0 1.0393,1.79929 3.6295,0 -1.0392,-1.79929 z m -29.3313,2.82306 c -0.059,0.11154 -0.093,0.28948 -0.093,0.5584 0,-0.26887 0.034,-0.44671 0.093,-0.5584 z m 1.5665,1.5666 c 0.013,0.0174 0.027,0.0372 0.031,0.062 -0.01,-0.0293 -0.013,-0.0427 -0.031,-0.062 z m 9.0275,1.58213 c -0.2685,0.538 -0.5683,1.15238 -0.8066,1.62868 l 10.2063,0 c -0.2956,-0.51447 -0.6064,-1.03638 -0.9462,-1.62868 z m 16.0074,0 c 0.3693,0.62858 0.692,1.191 0.9461,1.62868 l 2.9006,0 -0.9462,-1.62868 z m 6.1889,0 0.1861,0.32575 3.6296,0 -0.1861,-0.32575 z m -33.4418,3.47448 c -0.1425,0.31905 -0.2416,0.52538 -0.3568,0.79103 0.1163,-0.2656 0.2185,-0.4828 0.3568,-0.79103 z m 2.0475,4.51368 29.7191,0 c -4.0309,3.35267 -9.2068,5.38236 -14.8596,5.38236 -5.6527,0 -10.8286,-2.02969 -14.8595,-5.38236 z"
       style="display:inline;opacity:1;fill:#ffffff;fill-opacity:1;fill-rule:nonzero;stroke:none" />
  </g>
</svg>
